<svg width="474.99999999999994" height="474.99999999999994" xmlns="http://www.w3.org/2000/svg">
 <title>Logo</title>

 <g>
  <title>Layer 1</title>
  <rect fill="#999999" stroke="#000000" stroke-width="15" x="45.86066" y="27.18265" width="380" height="380" id="svg_1" rx="50"/>
  <path stroke="#000000" fill="#000000" stroke-width="15" opacity="undefined" d="m87.54181,86.31307c0,-11.85196 9.95963,-21.81159 21.81159,-21.81159l253.0145,0c11.85196,0 21.81159,9.95963 21.81159,21.81159l0,261.73914c0,11.85196 -9.95963,21.81159 -21.81159,21.81159l-253.0145,0c-11.85196,0 -21.81159,-9.95963 -21.81159,-21.81159l0,-261.73914z" id="svg_5"/>
  <rect fill="#999999" stroke="#000000" stroke-width="15" x="93.89427" y="407.14854" width="100" height="40.66884" id="svg_20" rx="10"/>
  <rect fill="#999999" stroke="#000000" stroke-width="15" x="284.55571" y="407.53764" width="100" height="39.1763" id="svg_23" rx="10"/>
  <path transform="rotate(86.1135, 288.62, 217.71)" id="svg_7" d="m93.52651,309.64596l52.00094,-183.87166l289.3256,1.17647l48.86051,165.13597l-390.18705,17.55922z" stroke-width="15" stroke="#000000" fill="#999999"/>
  <path fill="#4c4c4c" stroke="#000000" stroke-width="15" opacity="undefined" d="m369.29001,106.00788c0,-5.43379 4.56621,-10 10,-10l10,0c5.43379,0 10,4.56621 10,10l0,39.99999c0,5.43379 -4.56621,10 -10,10l-10,0c-5.43379,0 -10,-4.56621 -10,-10l0,-39.99999z" id="svg_3"/>
  <path id="svg_4" d="m369.35969,287.85939c0,-5.43379 4.56621,-10 10,-10l10,0c5.43379,0 10,4.56621 10,10l0,40c0,5.43379 -4.56621,10 -10,10l-10,0c-5.43379,0 -10,-4.56621 -10,-10l0,-40z" opacity="undefined" stroke-width="15" stroke="#000000" fill="#4c4c4c"/>
  <g transform="rotate(-5.69788, 277.58, 218.382)" id="svg_6">
   <ellipse ry="64.20014" rx="35.53936" id="svg_12" cy="218.38235" cx="277.10929" stroke-width="15" stroke="#000000" fill="#cccccc"/>
   <path id="svg_17" d="m277.58053,285.71412l0,-134.66352" opacity="undefined" stroke-width="10" stroke="#000000" fill="none"/>
   <line id="svg_18" y2="170.77161" x2="250.75335" y1="265.99309" x1="303.46523" stroke-width="10" stroke="#000000" fill="none"/>
   <line id="svg_19" y2="218.38296" x2="314.85328" y1="218.38296" x1="240.30743" stroke-width="10" stroke="#000000" fill="none"/>
   <line id="svg_21" y2="170.77158" x2="303.93613" y1="265.99306" x1="251.22425" stroke-width="10" stroke="#000000" fill="none"/>
   <ellipse ry="44.41041" rx="24.58433" id="svg_25" cy="218.38236" cx="277.10929" stroke-width="15" fill="#cccccc"/>
   <ellipse stroke="#000000" ry="24.07988" rx="13.32993" id="svg_33" cy="218.38237" cx="277.10927" stroke-width="10" fill="#4c4c4c"/>
  </g>
 </g>
</svg>