<svg width="474.99999999999994" height="474.99999999999994" xmlns="http://www.w3.org/2000/svg">
 <title>404_logo</title>

 <g>
  <title>Layer 1</title>
  <rect rx="50" id="svg_1" height="380" width="380" y="27.18265" x="45.86066" stroke-width="10" stroke="#191919" fill="#999999"/>
  <path id="svg_5" d="m87.54181,86.31307c0,-11.85196 9.95963,-21.81159 21.81159,-21.81159l253.0145,0c11.85196,0 21.81159,9.95963 21.81159,21.81159l0,261.73914c0,11.85196 -9.95963,21.81159 -21.81159,21.81159l-253.0145,0c-11.85196,0 -21.81159,-9.95963 -21.81159,-21.81159l0,-261.73914z" opacity="undefined" stroke-width="10" fill="#191919" stroke="#191919"/>
  <path id="svg_20" d="m93.89427,417.94855c-0.52632,-12.2759 -1.74958,-10 10,-10l80,0c10.69695,-0.52632 10.52632,-0.69695 10,10l0,20c0,5.43379 -4.56621,10 -10,10l-80,0c-5.43379,0 -10,-4.56621 -10,-10l0,-20z" opacity="undefined" stroke-width="10" stroke="#191919" fill="#999999"/>
  <path id="svg_23" d="m282.1557,417.53763c-0.52632,-12.2759 -1.74958,-10 10,-10l80,0c11.22326,0 10,-0.17063 10,10l0,20c0,5.43379 -4.56621,10 -10,10l-80,0c-5.43379,0 -10,-4.56621 -10,-10l0,-20z" opacity="undefined" stroke-width="10" stroke="#191919" fill="#999999"/>
  <path fill="#999999" stroke="#191919" stroke-width="10" d="m93.52651,309.64596l52.00094,-183.87166l289.3256,1.17647l48.86051,165.13597l-390.18705,17.55922z" id="svg_7" transform="rotate(86.1135, 288.62, 217.71)"/>
  <path transform="rotate(-5, 384.361, 307.479)" fill="#4c4c4c" stroke="#191919" stroke-width="10" opacity="undefined" d="m374.17802,287.47919c0,-5.43379 3.09997,-10 6.78894,-10l6.78894,0c3.68897,0 6.78894,4.56621 6.78894,10l0,40c0,5.43379 -3.09997,10 -6.78894,10l-6.78894,0c-3.68897,0 -6.78894,-4.56621 -6.78894,-10l0,-40z" id="svg_4"/>
  <ellipse transform="rotate(-5.69788, 277.112, 218.429)" fill="#7f7f7f" stroke="#191919" stroke-width="8" cx="277.11162" cy="218.42912" id="svg_12" rx="35.53936" ry="64.20014"/>
  <path transform="rotate(-5.69788, 277.581, 218.382)" fill="none" stroke="#191919" stroke-width="10" opacity="undefined" d="m277.58053,285.7141l0,-134.66352" id="svg_17"/>
  <line transform="rotate(-5.69788, 277.112, 218.429)" fill="none" stroke="#191919" stroke-width="10" x1="301.14538" y1="264.13322" x2="253.07786" y2="172.72502" id="svg_18"/>
  <line transform="rotate(-5.69788, 277.58, 218.383)" fill="none" stroke="#191919" stroke-width="10" x1="240.30749" y1="218.38296" x2="314.85334" y2="218.38296" id="svg_19"/>
  <line transform="rotate(-5.69788, 276.33, 219.632)" fill="none" stroke="#191919" stroke-width="10" x1="251.34218" y1="266.12336" x2="301.3182" y2="173.14132" id="svg_21"/>
  <ellipse transform="rotate(-5.69788, 277.545, 219.01)" fill="#4c4c4c" stroke-width="7" cx="277.54472" cy="219.01045" id="svg_25" rx="25.12304" ry="43.04248" stroke="#191919"/>
  <ellipse transform="rotate(-5.69788, 277.112, 218.429)" fill="#999999" stroke-width="10" cx="277.1116" cy="218.42914" id="svg_33" rx="13.32993" ry="24.07988" stroke="#191919"/>
  <path transform="rotate(5, 366.823, 129.079)" fill="#4c4c4c" stroke="#191919" stroke-width="10" opacity="undefined" d="m356.63956,109.07919c0,-5.43379 3.09997,-10 6.78894,-10l6.78894,0c3.68897,0 6.78894,4.56621 6.78894,10l0,40c0,5.43379 -3.09997,10 -6.78894,10l-6.78894,0c-3.68897,0 -6.78894,-4.56621 -6.78894,-10l0,-40z" id="svg_2"/>
 </g>
</svg>