<svg width="474.99999999999994" height="474.99999999999994" xmlns="http://www.w3.org/2000/svg">
 <title>404_file</title>

 <g>
  <title>Layer 1</title>
  <g transform="rotate(-12, 240.109, 224.457)" id="svg_25">
   <path id="svg_11" d="m343.10826,71.62594c-28.04985,-25.29877 -58.30316,-45.56468 -83.12021,-48.32753c-1.35103,-0.17921 -2.7503,-0.28375 -4.23,-0.31362l-163.32928,0c-2.60555,0 -5.17893,0.94086 -7.01246,2.68818c-1.81745,1.70251 -2.89505,4.09201 -2.89505,6.52631l0,384.55929c0,2.41936 1.01327,4.73419 2.89505,6.49644c1.88178,1.73238 4.35866,2.67325 7.01246,2.67325l295.35981,0c2.60555,0 5.09851,-0.92593 6.9803,-2.67325c1.88178,-1.74732 2.92722,-4.06214 2.92722,-6.49644l0,-255.89994c-0.57901,-29.7044 -25.63731,-62.09699 -54.58785,-89.23269zm34.74064,335.88827l-275.54478,0l0,-366.16018l153.47001,0l0,0.02987c6.69079,-0.37336 12.46481,5.76466 16.88781,19.80294c4.02091,13.36624 5.03418,30.79461 5.01809,42.87649c0.03217,8.85606 -0.43426,14.79993 -0.43426,14.79993l-0.7881,9.73719l10.55086,0.10454c0.04825,0 24.38279,0.26882 48.25089,5.30169c22.93526,4.59978 40.86851,13.76946 42.54121,24.14883c0.06433,0.92593 0.08042,1.85186 0.06433,2.71805l0,246.64065l-0.01608,0z" stroke-width="0" stroke="#000000" fill="#000000"/>
   <ellipse ry="55.41667" rx="32.91667" id="svg_19" cy="305.28984" cx="240.52536" stroke-width="15" stroke="#000000" fill="none"/>
   <line id="svg_16" y2="307.97544" x2="194.70904" y1="307.97544" x1="113.02537" stroke-width="15" stroke="#000000" fill="none"/>
   <line id="svg_17" y2="366.35427" x2="174.69203" y1="244.22544" x1="174.69203" stroke-width="15" stroke="#000000" fill="none"/>
   <path id="svg_18" d="m114.02174,313.21094l66.59632,-66.59632" opacity="undefined" stroke-width="15" stroke="#000000" fill="none"/>
   <line id="svg_21" y2="307.97544" x2="367.6257" y1="307.97544" x1="285.94203" stroke-width="15" stroke="#000000" fill="none"/>
   <line id="svg_22" y2="366.35427" x2="347.6087" y1="244.22544" x1="347.6087" stroke-width="15" stroke="#000000" fill="none"/>
   <line id="svg_23" y2="246.61463" x2="354.40429" y1="313.21094" x1="287.80797" stroke-width="15" stroke="#000000" fill="none"/>
  </g>
 </g>
</svg>