<svg width="474.99999999999994" height="474.99999999999994" xmlns="http://www.w3.org/2000/svg">
 <title>404_logo</title>

 <g>
  <title>Layer 1</title>
  <rect rx="50" id="svg_1" height="380" width="380" y="27.18265" x="45.86066" stroke-width="15" stroke="#000000" fill="#999999"/>
  <path id="svg_5" d="m87.54181,86.31307c0,-11.85196 9.95963,-21.81159 21.81159,-21.81159l253.0145,0c11.85196,0 21.81159,9.95963 21.81159,21.81159l0,261.73914c0,11.85196 -9.95963,21.81159 -21.81159,21.81159l-253.0145,0c-11.85196,0 -21.81159,-9.95963 -21.81159,-21.81159l0,-261.73914z" opacity="undefined" stroke-width="15" fill="#000000" stroke="#000000"/>
  <rect rx="10" id="svg_20" height="40.66884" width="100" y="407.14854" x="93.89427" stroke-width="15" stroke="#000000" fill="#999999"/>
  <rect rx="10" id="svg_23" height="39.1763" width="100" y="407.53764" x="284.55571" stroke-width="15" stroke="#000000" fill="#999999"/>
  <path fill="#999999" stroke="#000000" stroke-width="15" d="m93.52651,309.64596l52.00094,-183.87166l289.3256,1.17647l48.86051,165.13597l-390.18705,17.55922z" id="svg_7" transform="rotate(86.1135, 288.62, 217.71)"/>
  <path transform="rotate(-5, 372.29, 126.008)" id="svg_3" d="m357.29001,106.00788c0,-5.43379 4.56621,-10 10,-10l10,0c5.43379,0 10,4.56621 10,10l0,39.99999c0,5.43379 -4.56621,10 -10,10l-10,0c-5.43379,0 -10,-4.56621 -10,-10l0,-39.99999z" opacity="undefined" stroke-width="15" stroke="#000000" fill="#4c4c4c"/>
  <path transform="rotate(-5, 384.36, 307.859)" fill="#4c4c4c" stroke="#000000" stroke-width="15" opacity="undefined" d="m369.35969,287.85939c0,-5.43379 4.56621,-10 10,-10l10,0c5.43379,0 10,4.56621 10,10l0,40c0,5.43379 -4.56621,10 -10,10l-10,0c-5.43379,0 -10,-4.56621 -10,-10l0,-40z" id="svg_4"/>
  <ellipse transform="rotate(-5.69788, 277.112, 218.429)" fill="#cccccc" stroke="#000000" stroke-width="10" cx="277.11162" cy="218.42912" id="svg_12" rx="35.53936" ry="64.20014"/>
  <path transform="rotate(-5.69788, 277.581, 218.382)" fill="none" stroke="#000000" stroke-width="10" opacity="undefined" d="m277.58053,285.7141l0,-134.66352" id="svg_17"/>
  <line transform="rotate(-5.69788, 277.112, 218.429)" fill="none" stroke="#000000" stroke-width="10" x1="303.46756" y1="266.03986" x2="250.75568" y2="170.81838" id="svg_18"/>
  <line transform="rotate(-5.69788, 277.58, 218.383)" fill="none" stroke="#000000" stroke-width="10" x1="240.30749" y1="218.38296" x2="314.85334" y2="218.38296" id="svg_19"/>
  <line transform="rotate(-5.69788, 277.58, 218.382)" fill="none" stroke="#000000" stroke-width="10" x1="251.22425" y1="265.99308" x2="303.93613" y2="170.7716" id="svg_21"/>
  <ellipse transform="rotate(-5.69788, 277.112, 218.429)" fill="#cccccc" stroke-width="15" cx="277.11162" cy="218.42913" id="svg_25" rx="24.58433" ry="44.41041"/>
  <ellipse transform="rotate(-5.69788, 277.112, 218.429)" fill="#4c4c4c" stroke-width="10" cx="277.1116" cy="218.42914" id="svg_33" rx="13.32993" ry="24.07988" stroke="#000000"/>
 </g>
</svg>