<svg width="474.99999999999994" height="474.99999999999994" xmlns="http://www.w3.org/2000/svg">
 <title>404_logo</title>

 <g>
  <title>Layer 1</title>
  <rect fill="#999999" stroke="#191919" stroke-width="15" x="45.86066" y="27.18265" width="380" height="380" id="svg_1" rx="50"/>
  <path stroke="#191919" fill="#191919" stroke-width="15" opacity="undefined" d="m87.54181,86.31307c0,-11.85196 9.95963,-21.81159 21.81159,-21.81159l253.0145,0c11.85196,0 21.81159,9.95963 21.81159,21.81159l0,261.73914c0,11.85196 -9.95963,21.81159 -21.81159,21.81159l-253.0145,0c-11.85196,0 -21.81159,-9.95963 -21.81159,-21.81159l0,-261.73914z" id="svg_5"/>
  <rect fill="#999999" stroke="#191919" stroke-width="15" x="93.89427" y="407.94854" width="100" height="40" id="svg_20" rx="10"/>
  <rect fill="#999999" stroke="#191919" stroke-width="15" x="282.15571" y="407.53764" width="100" height="40" id="svg_23" rx="10"/>
  <path transform="rotate(86.1135, 288.62, 217.71)" id="svg_7" d="m93.52651,309.64596l52.00094,-183.87166l289.3256,1.17647l48.86051,165.13597l-390.18705,17.55922z" stroke-width="15" stroke="#191919" fill="#999999"/>
  <path id="svg_4" d="m374.17802,287.47919c0,-5.43379 3.09997,-10 6.78894,-10l6.78894,0c3.68897,0 6.78894,4.56621 6.78894,10l0,40c0,5.43379 -3.09997,10 -6.78894,10l-6.78894,0c-3.68897,0 -6.78894,-4.56621 -6.78894,-10l0,-40z" opacity="undefined" stroke-width="10" stroke="#191919" fill="#4c4c4c" transform="rotate(-5, 384.361, 307.479)"/>
  <ellipse ry="64.20014" rx="35.53936" id="svg_12" cy="218.42912" cx="277.11162" stroke-width="8" stroke="#191919" fill="#666666" transform="rotate(-5.69788, 277.112, 218.429)"/>
  <path id="svg_17" d="m277.58053,285.7141l0,-134.66352" opacity="undefined" stroke-width="10" stroke="#191919" fill="none" transform="rotate(-5.69788, 277.581, 218.382)"/>
  <line id="svg_18" y2="172.72502" x2="253.07786" y1="264.13322" x1="301.14538" stroke-width="10" stroke="#191919" fill="none" transform="rotate(-5.69788, 277.112, 218.429)"/>
  <line id="svg_19" y2="218.38296" x2="314.85334" y1="218.38296" x1="240.30749" stroke-width="10" stroke="#191919" fill="none" transform="rotate(-5.69788, 277.58, 218.383)"/>
  <line id="svg_21" y2="173.14132" x2="301.3182" y1="266.12336" x1="251.34218" stroke-width="10" stroke="#191919" fill="none" transform="rotate(-5.69788, 276.33, 219.632)"/>
  <ellipse stroke="#191919" ry="43.04248" rx="25.12304" id="svg_25" cy="219.01045" cx="277.54472" stroke-width="7" fill="#7f7f7f" transform="rotate(-5.69788, 277.545, 219.01)"/>
  <ellipse stroke="#191919" ry="24.07988" rx="13.32993" id="svg_33" cy="218.42914" cx="277.1116" stroke-width="10" fill="#4c4c4c" transform="rotate(-5.69788, 277.112, 218.429)"/>
  <path id="svg_2" d="m356.63956,109.07919c0,-5.43379 3.09997,-10 6.78894,-10l6.78894,0c3.68897,0 6.78894,4.56621 6.78894,10l0,40c0,5.43379 -3.09997,10 -6.78894,10l-6.78894,0c-3.68897,0 -6.78894,-4.56621 -6.78894,-10l0,-40z" opacity="undefined" stroke-width="10" stroke="#191919" fill="#4c4c4c" transform="rotate(5, 366.823, 129.079)"/>
 </g>
</svg>