<svg width="474.99999999999994" height="474.99999999999994" xmlns="http://www.w3.org/2000/svg">
 <title>Logo</title>

 <g>
  <title>Layer 1</title>
  <rect fill="#999999" stroke="#191919" stroke-width="15" x="282.95571" y="408.16264" width="100" height="40" id="svg_23" rx="10"/>
  <rect fill="#999999" stroke="#191919" stroke-width="15" x="45.86066" y="27.18265" width="380" height="380" id="svg_1" rx="50"/>
  <path stroke="#191919" fill="#999999" stroke-width="15" opacity="undefined" d="m87.54181,86.31307c0,-11.85196 9.95963,-21.81159 21.81159,-21.81159l253.0145,0c11.85196,0 21.81159,9.95963 21.81159,21.81159l0,261.73914c0,11.85196 -9.95963,21.81159 -21.81159,21.81159l-253.0145,0c-11.85196,0 -21.81159,-9.95963 -21.81159,-21.81159l0,-261.73914z" id="svg_2"/>
  <path id="svg_4" d="m373.97584,287.17764c0,-5.43379 3.04029,-10 6.65823,-10l6.65823,0c3.61794,0 6.65823,4.56621 6.65823,10l0,40c0,5.43379 -3.04029,10 -6.65823,10l-6.65823,0c-3.61794,0 -6.65823,-4.56621 -6.65823,-10l0,-40z" opacity="undefined" stroke-width="10" stroke="#191919" fill="#666666"/>
  <rect fill="#999999" stroke="#191919" stroke-width="15" x="93.89427" y="407.77354" width="100" height="40" id="svg_20" rx="10"/>
  <ellipse ry="61.81642" rx="61.81642" id="svg_12" cy="217.18264" cx="191.3198" stroke-width="10" stroke="#191919" fill="#7f7f7f"/>
  <path id="svg_17" d="m192.13948,282.01441l0,-129.66352" opacity="undefined" stroke-width="10" stroke="#191919" fill="none"/>
  <line id="svg_18" y2="171.33967" x2="145.47683" y1="263.02562" x1="237.16278" stroke-width="10" stroke="#191919" fill="none"/>
  <line id="svg_19" y2="217.18323" x2="256.97093" y1="217.18323" x1="127.30742" stroke-width="10" stroke="#191919" fill="none"/>
  <line id="svg_21" y2="171.33964" x2="237.98185" y1="263.02559" x1="146.2959" stroke-width="10" stroke="#191919" fill="none"/>
  <ellipse ry="42.76147" rx="42.76147" id="svg_25" cy="217.18265" cx="191.31981" stroke-width="10" fill="#b2b2b2" stroke="#191919"/>
  <ellipse stroke="#191919" ry="23.1858" rx="23.1858" id="svg_33" cy="217.18266" cx="191.31978" stroke-width="10" fill="#7f7f7f"/>
  <path id="svg_3" d="m374.74507,111.02383c0,-5.43379 3.04029,-10 6.65823,-10l6.65823,0c3.61794,0 6.65823,4.56621 6.65823,10l0,40c0,5.43379 -3.04029,10 -6.65823,10l-6.65823,0c-3.61794,0 -6.65823,-4.56621 -6.65823,-10l0,-40z" opacity="undefined" stroke-width="10" stroke="#191919" fill="#666666"/>
 </g>
</svg>