<svg width="474.99999999999994" height="474.99999999999994" xmlns="http://www.w3.org/2000/svg">
 <title>Logo</title>

 <g>
  <title>Layer 1</title>
  <rect rx="50" id="svg_1" height="380" width="380" y="27.18265" x="45.86066" stroke-width="15" stroke="#000000" fill="#999999"/>
  <path id="svg_2" d="m87.54181,86.31307c0,-11.85196 9.95963,-21.81159 21.81159,-21.81159l253.0145,0c11.85196,0 21.81159,9.95963 21.81159,21.81159l0,261.73914c0,11.85196 -9.95963,21.81159 -21.81159,21.81159l-253.0145,0c-11.85196,0 -21.81159,-9.95963 -21.81159,-21.81159l0,-261.73914z" opacity="undefined" stroke-width="15" fill="#999999" stroke="#000000"/>
  <path id="svg_3" d="m369.29001,106.00788c0,-5.43379 4.56621,-10 10,-10l10,0c5.43379,0 10,4.56621 10,10l0,39.99999c0,5.43379 -4.56621,10 -10,10l-10,0c-5.43379,0 -10,-4.56621 -10,-10l0,-39.99999z" opacity="undefined" stroke-width="15" stroke="#000000" fill="#4c4c4c"/>
  <path fill="#4c4c4c" stroke="#000000" stroke-width="15" opacity="undefined" d="m369.35969,287.85939c0,-5.43379 4.56621,-10 10,-10l10,0c5.43379,0 10,4.56621 10,10l0,40c0,5.43379 -4.56621,10 -10,10l-10,0c-5.43379,0 -10,-4.56621 -10,-10l0,-40z" id="svg_4"/>
  <rect rx="10" id="svg_20" height="40.66884" width="100" y="407.14854" x="93.89427" stroke-width="15" stroke="#000000" fill="#999999"/>
  <rect rx="10" id="svg_23" height="39.1763" width="100" y="407.53764" x="284.55571" stroke-width="15" stroke="#000000" fill="#999999"/>
  <ellipse fill="#cccccc" stroke="#000000" stroke-width="15" cx="191.3198" cy="217.18264" id="svg_12" rx="61.81642" ry="61.81642"/>
  <path fill="none" stroke="#000000" stroke-width="10" opacity="undefined" d="m192.13948,282.01441l0,-129.66352" id="svg_17"/>
  <line fill="none" stroke="#000000" stroke-width="10" x1="237.16278" y1="263.02562" x2="145.47683" y2="171.33967" id="svg_18"/>
  <line fill="none" stroke="#000000" stroke-width="10" x1="127.30742" y1="217.18323" x2="256.97093" y2="217.18323" id="svg_19"/>
  <line fill="none" stroke="#000000" stroke-width="10" x1="146.2959" y1="263.02559" x2="237.98185" y2="171.33964" id="svg_21"/>
  <ellipse fill="#cccccc" stroke-width="15" cx="191.31981" cy="217.18265" id="svg_25" rx="42.76147" ry="42.76147"/>
  <ellipse fill="#4c4c4c" stroke-width="10" cx="191.31978" cy="217.18266" id="svg_33" rx="23.1858" ry="23.1858" stroke="#000000"/>
 </g>
</svg>