<svg width="474.99999999999994" height="474.99999999999994" xmlns="http://www.w3.org/2000/svg">
 <title>Logo</title>

 <g>
  <title>Layer 1</title>
  <path id="svg_23" d="m282.95572,418.16263c0,-9.26358 -1.39124,-10 10,-10l80,0c10.54017,0.42553 9.91271,-2.16592 10,10l0,20c0,5.43379 -4.56621,10 -10,10l-80,0c-5.43379,0 -10,-4.56621 -10,-10l0,-20z" opacity="undefined" stroke-width="10" stroke="#191919" fill="#999999"/>
  <path id="svg_1" d="m45.43513,77.18265c0,-27.16895 22.83105,-50 50,-50l280,0c27.16895,0 50,22.83105 50,50l0,280c0,27.16895 -22.83105,50 -50,50l-280,0c-27.16895,0 -50,-22.83105 -50,-50l0,-280z" opacity="undefined" stroke-width="10" stroke="#191919" fill="#999999"/>
  <path id="svg_2" d="m87.54181,86.31307c0,-11.85196 9.95963,-21.81159 21.81159,-21.81159l253.0145,0c11.85196,0 21.81159,9.95963 21.81159,21.81159l0,261.73914c0,11.85196 -9.95963,21.81159 -21.81159,21.81159l-253.0145,0c-11.85196,0 -21.81159,-9.95963 -21.81159,-21.81159l0,-261.73914z" opacity="undefined" stroke-width="10" fill="#999999" stroke="#191919"/>
  <path fill="#666666" stroke="#191919" stroke-width="10" opacity="undefined" d="m373.97584,287.17764c0,-5.43379 3.04029,-10 6.65823,-10l6.65823,0c3.61794,0 6.65823,4.56621 6.65823,10l0,40c0,5.43379 -3.04029,10 -6.65823,10l-6.65823,0c-3.61794,0 -6.65823,-4.56621 -6.65823,-10l0,-40z" id="svg_4"/>
  <path id="svg_20" d="m93.89427,417.77353c0.42553,-10.11464 -0.9657,-10.85106 10,-10l80,0c10.11464,0.42553 10,-0.54017 10,10l0,20c0,5.43379 -4.56621,10 -10,10l-80,0c-5.43379,0 -10,-4.56621 -10,-10l0,-20z" opacity="undefined" stroke-width="10" stroke="#191919" fill="#999999"/>
  <ellipse fill="#7f7f7f" stroke="#191919" stroke-width="10" cx="191.3198" cy="217.18264" id="svg_12" rx="61.81642" ry="61.81642"/>
  <path fill="none" stroke="#191919" stroke-width="10" opacity="undefined" d="m192.13948,282.01441l0,-129.66352" id="svg_17"/>
  <line fill="none" stroke="#191919" stroke-width="10" x1="237.16278" y1="263.02562" x2="145.47683" y2="171.33967" id="svg_18"/>
  <line fill="none" stroke="#191919" stroke-width="10" x1="127.30742" y1="217.18323" x2="256.97093" y2="217.18323" id="svg_19"/>
  <line fill="none" stroke="#191919" stroke-width="10" x1="146.2959" y1="263.02559" x2="237.98185" y2="171.33964" id="svg_21"/>
  <ellipse stroke="#191919" fill="#333333" stroke-width="10" cx="191.31981" cy="217.18265" id="svg_25" rx="42.76147" ry="42.76147"/>
  <ellipse fill="#7f7f7f" stroke-width="10" cx="191.31978" cy="217.18266" id="svg_33" rx="23.1858" ry="23.1858" stroke="#191919"/>
  <path fill="#666666" stroke="#191919" stroke-width="10" opacity="undefined" d="m374.74507,111.02383c0,-5.43379 3.04029,-10 6.65823,-10l6.65823,0c3.61794,0 6.65823,4.56621 6.65823,10l0,40c0,5.43379 -3.04029,10 -6.65823,10l-6.65823,0c-3.61794,0 -6.65823,-4.56621 -6.65823,-10l0,-40z" id="svg_3"/>
 </g>
</svg>